<svg id="Fill" xmlns="http://www.w3.org/2000/svg" viewBox="0 0 100 100"><defs><style>.cls-1{fill:#fff;}</style></defs><path class="cls-1" d="M69.9,85.5a8.67,8.67,0,0,1-2.15-.27c-3.67-.89-5-3.51-6-5.41s-1.33-2.4-2.56-2.67c-3.23-.73-6.69,3.32-6.72,3.36a2.62,2.62,0,1,1-4.06-3.32c.22-.27,5.47-6.6,11.92-5.16,3.72.83,5.08,3.46,6.07,5.38.86,1.66,1.3,2.41,2.59,2.73,3,.73,4.74-2.41,4.93-2.77a2.62,2.62,0,0,1,4.65,2.41C77.47,81.94,74.39,85.5,69.9,85.5ZM85.44,49a2.61,2.61,0,0,1-3.68.44s-3-2.12-9.75-2.12h0a19.22,19.22,0,0,0-2.35.15C72.73,52.37,74,57,71.6,59.37l-.09.08,0,0a4.16,4.16,0,0,1-1.73,1L25.84,83.2a2.27,2.27,0,0,1-.73.21h-.36a8.81,8.81,0,0,1-6.15-2.78,8.59,8.59,0,0,1-2.77-6.52,2,2,0,0,1,.22-.72L38.79,29.47a4.15,4.15,0,0,1,1-1.73l0,0a.27.27,0,0,1,.07-.08c3.33-3.33,10.69.35,17.45,6A3.36,3.36,0,0,0,58,32c.13-1.25-.3-1.94-1.2-3.24a8.71,8.71,0,0,1-2-6.87c1-5.81,7.23-7.38,10.79-7.39h0a2.62,2.62,0,0,1,0,5.24s-5.17.14-5.64,3c-.18,1.14.18,1.72,1.09,3a9.44,9.44,0,0,1,2.11,6.76,8.69,8.69,0,0,1-2.06,4.59l.46.46a63.41,63.41,0,0,1,4.67,5.19,23,23,0,0,1,5.7-.71h0c8.62,0,12.57,2.91,13,3.24A2.62,2.62,0,0,1,85.44,49Zm-19.8-.51a12.25,12.25,0,0,0-3.26,1.82,2.59,2.59,0,0,1-1.75.67,2.62,2.62,0,0,1-1.75-4.57,15.66,15.66,0,0,1,3.5-2.21c-1-1.22-2.19-2.5-3.52-3.82l-.54-.54a23.81,23.81,0,0,1-4.39,2.56,2.71,2.71,0,0,1-1,.21,2.62,2.62,0,0,1-1-5,17.74,17.74,0,0,0,2.46-1.35C47.41,30.54,43.08,30,42.64,30.39s.43,6.7,10,16.24A48.92,48.92,0,0,0,63.69,55.2c3.54,1.85,5,1.53,5.13,1.39C69.42,56,68.61,52.9,65.64,48.47ZM25.77,41c.21-.49,2-5-.14-13.39-2.07-8-7.27-11.48-7.49-11.62a2.62,2.62,0,0,0-2.91,4.36,15.3,15.3,0,0,1,5.33,8.58c1.7,6.55.4,10,.41,10h0A2.62,2.62,0,1,0,25.77,41ZM76.24,25.9a2.69,2.69,0,1,0,2.69,2.69A2.68,2.68,0,0,0,76.24,25.9ZM16.69,48.82a2.69,2.69,0,1,0,2.69,2.69A2.68,2.68,0,0,0,16.69,48.82ZM80,61.43,76.46,65,80,68.55,83.58,65ZM34.31,17.12l-3.56,3.56,3.56,3.56,3.56-3.56Z"/></svg>